<svg width="40" height="54" viewBox="0 0 40 54" fill="none" xmlns="http://www.w3.org/2000/svg">
<path d="M34.4444 3.77778H24.4444V1.11111C24.4427 0.498264 23.9462 0.00173611 23.3333 0H16.6667C16.0538 0.00173611 15.5573 0.498264 15.5556 1.11111V3.77778H5.55556C2.48785 3.77917 0.00138889 6.26562 0 9.33333V47.5556C0.00138889 50.6233 2.48785 53.1097 5.55556 53.1111H34.4444C37.5122 53.1097 39.9986 50.6233 40 47.5556V9.33333C39.9986 6.26562 37.5122 3.77917 34.4444 3.77778ZM17.7778 2.22222H22.2222V6.66667H17.7778V2.22222ZM37.7778 47.5556C37.7726 49.3941 36.283 50.8837 34.4444 50.8889H5.55556C3.71701 50.8837 2.22743 49.3941 2.22222 47.5556V9.33333C2.22743 7.49479 3.71701 6.00521 5.55556 6H15.5556V7.77778C15.5573 8.39062 16.0538 8.88715 16.6667 8.88889H23.3333C23.9462 8.88715 24.4427 8.39062 24.4444 7.77778V6H34.4444C36.283 6.00521 37.7726 7.49479 37.7778 9.33333V47.5556Z" fill="#FFA800" fill-opacity="0.5"/>
</svg>
